<?xml version="1.0" encoding="UTF-8" standalone="no"?>
<!-- Created with Inkscape (http://www.inkscape.org/) -->
<svg
   xmlns:dc="http://purl.org/dc/elements/1.1/"
   xmlns:cc="http://creativecommons.org/ns#"
   xmlns:rdf="http://www.w3.org/1999/02/22-rdf-syntax-ns#"
   xmlns:svg="http://www.w3.org/2000/svg"
   xmlns="http://www.w3.org/2000/svg"
   xmlns:sodipodi="http://sodipodi.sourceforge.net/DTD/sodipodi-0.dtd"
   xmlns:inkscape="http://www.inkscape.org/namespaces/inkscape"
   width="235.55956"
   height="234.03004"
   id="svg2"
   sodipodi:version="0.32"
   inkscape:version="0.46"
   version="1.0"
   sodipodi:docname="four points star.svg"
   inkscape:output_extension="org.inkscape.output.svg.inkscape">
  <defs
     id="defs4">
    <inkscape:perspective
       sodipodi:type="inkscape:persp3d"
       inkscape:vp_x="0 : 526.18109 : 1"
       inkscape:vp_y="0 : 1000 : 0"
       inkscape:vp_z="744.09448 : 526.18109 : 1"
       inkscape:persp3d-origin="372.04724 : 350.78739 : 1"
       id="perspective10" />
    <inkscape:perspective
       id="perspective2390"
       inkscape:persp3d-origin="372.04724 : 350.78739 : 1"
       inkscape:vp_z="744.09448 : 526.18109 : 1"
       inkscape:vp_y="0 : 1000 : 0"
       inkscape:vp_x="0 : 526.18109 : 1"
       sodipodi:type="inkscape:persp3d" />
  </defs>
  <sodipodi:namedview
     id="base"
     pagecolor="#ffffff"
     bordercolor="#666666"
     borderopacity="1.0"
     inkscape:pageopacity="0.0"
     inkscape:pageshadow="2"
     inkscape:zoom="2.172"
     inkscape:cx="49.258933"
     inkscape:cy="111.38608"
     inkscape:document-units="px"
     inkscape:current-layer="layer1"
     showgrid="false"
     inkscape:window-width="1264"
     inkscape:window-height="750"
     inkscape:window-x="0"
     inkscape:window-y="14" />
  <metadata
     id="metadata7">
    <rdf:RDF>
      <cc:Work
         rdf:about="">
        <dc:format>image/svg+xml</dc:format>
        <dc:type
           rdf:resource="http://purl.org/dc/dcmitype/StillImage" />
      </cc:Work>
    </rdf:RDF>
  </metadata>
  <g
     inkscape:label="Livello 1"
     inkscape:groupmode="layer"
     id="layer1"
     transform="translate(-414.76912,-164.04961)">
    <g
       id="g2396" />
    <path
       style="fill:#000000;fill-opacity:1;stroke:none;stroke-opacity:1"
       d="M 531.15625,165.4375 C 524.35988,184.24635 519.78901,204.26987 514.09422,223.62256 C 511.21907,234.00879 508.34391,244.39502 505.46875,254.78125 C 475.67782,263.15656 445.61312,271.00262 416.09375,280 C 411.69689,283.24345 419.45388,284.72368 421.85155,285.48626 C 449.57013,293.72278 477.58267,301.12947 505.46875,308.90625 C 513.81779,338.32231 521.3679,368.05695 530.3125,397.25 C 534.06273,400.44632 535.74888,393.55277 536.50373,391.02007 C 544.72463,363.82774 551.91893,336.29633 559.625,308.9375 C 589.32163,300.45328 619.40611,293.01224 648.75,283.5 C 653.53041,280.46648 646.16769,279.43791 643.63612,278.43074 C 615.81836,270.07493 587.65576,262.63509 559.65625,254.78125 C 551.27006,225.12197 543.58864,195.14374 534.375,165.8125 C 532.71276,164.59523 532.94683,162.73975 531.15625,165.4375 z"
       id="path2382" />
    <path
       style="fill:#ffffff;fill-opacity:1;stroke:none;stroke-opacity:1"
       d="M 531.81933,395.85496 C 531.30585,394.47996 525.53381,373.99165 518.99259,350.32538 L 507.09945,307.29581 L 461.93677,294.82538 C 437.09729,287.96665 416.92367,282.10581 417.10649,281.80129 C 417.28932,281.49678 437.61472,275.65705 462.27406,268.82412 L 507.10921,256.40062 L 519.51545,211.62779 C 526.33887,187.00273 532.21052,166.85496 532.56355,166.85496 C 532.91658,166.85496 538.78823,187.00273 545.61165,211.62779 L 558.01789,256.40062 L 602.79072,268.80686 C 627.41578,275.63028 647.56355,281.50193 647.56355,281.85496 C 647.56355,282.20799 627.41471,288.07993 602.78834,294.90372 L 558.01314,307.31061 L 545.38303,352.83279 C 534.97499,390.34607 532.58868,397.91513 531.81933,395.85496 z"
       id="path2438" />
  </g>
</svg>
